<?xml version="1.0" encoding="utf-8"?>
<svg viewBox="0 0 52 52" width="52px" height="52px" style="enable-background:new 0 0 52 52;" xmlns="http://www.w3.org/2000/svg">
  <defs>
    <style type="text/css">
	.st0{fill:#0FBD8C;}
	.st1{fill:#FFFFFF;}
	.st2{fill:#F9A83A;}
</style>
  </defs>
  <g transform="matrix(1, 0, 0, 1, -56.136383, -2.291369)">
    <title>sidekicklink</title>
    <g id="g-3" transform="matrix(1, 0, 0, 1, 56.136383, 2.291369)">
      <g id="g-4">
        <path id="path-1" class="st0" d="M41.4,5c3.1,0,5.6,2.5,5.6,5.6v30.8c0,3.1-2.5,5.6-5.6,5.6H10.6C7.5,47,5,44.5,5,41.4V10.6 C5,7.5,7.5,5,10.6,5H41.4z" style="fill: rgb(182, 213, 151);"/>
        <path id="path-2" class="st1" d="M37.7,36.9c-0.2,0-0.4-0.1-0.5-0.2c-0.3-0.3-0.3-0.8,0-1.1c2.6-2.6,4-6,4-9.6 c0-3.6-1.4-7.1-4-9.7c-0.3-0.3-0.3-0.8,0-1.1c0.3-0.3,0.8-0.3,1,0c2.8,2.9,4.4,6.7,4.4,10.7c0,4-1.6,7.9-4.4,10.7 C38.1,36.9,37.9,36.9,37.7,36.9z M35,33.5c-0.2,0-0.4-0.1-0.5-0.2c-0.3-0.3-0.3-0.8,0-1.1c1.7-1.7,2.6-3.9,2.6-6.3 c0-2.4-0.9-4.6-2.6-6.3c-0.3-0.3-0.3-0.8,0-1.1c0.3-0.3,0.8-0.3,1,0c1.9,2,3,4.6,3,7.3c0,2.8-1.1,5.4-3,7.3 C35.4,33.5,35.2,33.5,35,33.5z M32.3,30.1c-0.2,0-0.4-0.1-0.5-0.2c-0.3-0.3-0.3-0.8,0-1.1c0.8-0.8,1.2-1.8,1.2-2.9 c0-1.1-0.4-2.1-1.2-2.9c-0.3-0.3-0.3-0.8,0-1.1c0.3-0.3,0.8-0.3,1,0c1,1,1.6,2.4,1.6,3.9c0,1.5-0.6,2.9-1.6,3.9 C32.7,30.1,32.5,30.1,32.3,30.1z" style="fill: rgb(255, 255, 255);"/>
        <title>Scratch Link</title>
        <desc>Created with Sketch.</desc>
      </g>
    </g>
    <g id="g-1" transform="matrix(0.357278, 0, 0, 0.357148, -259.470612, -144.577789)" style="">
      <title>logo-schrift-2</title>
      <g id="g-2" transform="matrix(0.156142, 0, 0, 0.156142, 808.878723, 385.559937)" style="">
        <title>wappen</title>
        <g>
          <title>hintergrund</title>
          <polygon style="fill-rule: nonzero; paint-order: stroke; fill: rgb(182, 213, 151); stroke-linejoin: round; stroke-linecap: round; stroke: rgb(197, 221, 172); stroke-width: 125.638px;" points="808.214 512.912 759.987 633.282 838.402 583.184 820.783 676.65 731.307 764.462 722.34 818.165 736.601 768.612 836.242 696.182 894.426 515.704 803.406 581.894 827.004 524.292 915.709 439.495">
            <title>logo s</title>
          </polygon>
        </g>
        <g>
          <title>schrift</title>
          <polygon style="fill-rule: nonzero; paint-order: stroke; fill: rgb(182, 213, 151); stroke-linejoin: round; stroke-width: 62.8192px; stroke-linecap: round; stroke: rgb(255, 255, 255);" points="808.214 512.911 759.987 633.282 838.402 583.184 820.783 676.65 731.307 764.463 722.34 818.167 736.601 768.613 836.242 696.183 894.426 515.703 803.406 581.894 827.004 524.291 915.709 439.493">
            <title>logo s</title>
          </polygon>
        </g>
      </g>
    </g>
  </g>
</svg>