<?xml version="1.0" encoding="utf-8"?>
<svg viewBox="0 0 66.1 24.7" width="66.1" height="24.7" xmlns="http://www.w3.org/2000/svg">
  <defs>
    <style>.st0{fill:#fff}.st1{fill:#f9a83a}</style>
  </defs>
  <g id="g-1" transform="matrix(0.305906, 0, 0, 0.305795, -272.795685, -135.608154)" style="">
    <title>logo-schrift-2</title>
    <g id="g-2" transform="matrix(0.156142, 0, 0, 0.156142, 812.347412, 385.660736)" style="">
      <title>wappen</title>
      <g>
        <title>hintergrund2</title>
        <path d="M 17.039 0 L 17.039 -127.098 L 34.861 -127.098 L 34.861 0 Z" transform="matrix(1.166487, 0, 0, 1.166911, 910.763428, 691.249207)" style="fill: rgb(85, 85, 85); line-height: 341.839px; paint-order: stroke; stroke: rgb(197, 221, 172); stroke-linecap: round; stroke-linejoin: round; stroke-width: 107.687px; text-transform: uppercase; white-space: pre;"/>
        <path d="M 171.13 -64.766 Q 171.13 -43.293 163.219 -28.906 Q 155.308 -14.518 140.312 -7.259 Q 125.316 0 103.93 0 L 69.07 0 L 69.07 -127.098 L 107.842 -127.098 Q 127.315 -127.098 141.486 -120.013 Q 155.656 -112.927 163.393 -99.061 Q 171.13 -85.195 171.13 -64.766 Z M 152.439 -64.244 Q 152.439 -80.588 147.136 -91.194 Q 141.833 -101.8 131.575 -106.972 Q 121.317 -112.145 106.451 -112.145 L 86.891 -112.145 L 86.891 -15.127 L 103.322 -15.127 Q 127.924 -15.127 140.182 -27.471 Q 152.439 -39.816 152.439 -64.244 Z" transform="matrix(1.166487, 0, 0, 1.166911, 910.763428, 691.249207)" style="fill: rgb(85, 85, 85); line-height: 341.839px; paint-order: stroke; stroke: rgb(197, 221, 172); stroke-linecap: round; stroke-linejoin: round; stroke-width: 107.687px; text-transform: uppercase; white-space: pre;"/>
        <path d="M 270.309 0 L 198.936 0 L 198.936 -127.098 L 270.309 -127.098 L 270.309 -111.797 L 216.757 -111.797 L 216.757 -73.981 L 267.092 -73.981 L 267.092 -58.854 L 216.757 -58.854 L 216.757 -15.387 L 270.309 -15.387 Z" transform="matrix(1.166487, 0, 0, 1.166911, 910.763428, 691.249207)" style="fill: rgb(85, 85, 85); line-height: 341.839px; paint-order: stroke; stroke: rgb(197, 221, 172); stroke-linecap: round; stroke-linejoin: round; stroke-width: 107.687px; text-transform: uppercase; white-space: pre;"/>
        <path d="M 392.272 0 L 371.494 0 L 328.81 -59.724 L 315.77 -48.596 L 315.77 0 L 297.948 0 L 297.948 -127.098 L 315.77 -127.098 L 315.77 -65.027 Q 320.203 -70.243 324.767 -75.372 Q 329.331 -80.501 333.852 -85.717 L 370.277 -127.098 L 390.707 -127.098 L 341.676 -71.721 Z" transform="matrix(1.166487, 0, 0, 1.166911, 910.763428, 691.249207)" style="fill: rgb(85, 85, 85); line-height: 341.839px; paint-order: stroke; stroke: rgb(197, 221, 172); stroke-linecap: round; stroke-linejoin: round; stroke-width: 107.687px; text-transform: uppercase; white-space: pre;"/>
        <path d="M 409.302 0 L 409.302 -127.098 L 427.123 -127.098 L 427.123 0 Z" transform="matrix(1.166487, 0, 0, 1.166911, 910.763428, 691.249207)" style="fill: rgb(85, 85, 85); line-height: 341.839px; paint-order: stroke; stroke: rgb(197, 221, 172); stroke-linecap: round; stroke-linejoin: round; stroke-width: 107.687px; text-transform: uppercase; white-space: pre;"/>
        <path d="M 515.579 -113.536 Q 505.756 -113.536 497.975 -110.102 Q 490.195 -106.668 484.805 -100.105 Q 479.415 -93.541 476.546 -84.326 Q 473.677 -75.111 473.677 -63.549 Q 473.677 -48.161 478.241 -36.947 Q 482.805 -25.732 492.02 -19.647 Q 501.235 -13.562 515.232 -13.562 Q 523.577 -13.562 531.184 -15.083 Q 538.791 -16.604 546.354 -19.039 L 546.354 -3.738 Q 539.052 -0.956 531.271 0.391 Q 523.49 1.739 513.058 1.739 Q 493.585 1.739 480.675 -6.346 Q 467.766 -14.431 461.419 -29.079 Q 455.073 -43.728 455.073 -63.636 Q 455.073 -78.067 459.072 -90.02 Q 463.071 -101.974 470.808 -110.711 Q 478.545 -119.447 489.803 -124.185 Q 501.061 -128.923 515.753 -128.923 Q 525.316 -128.923 534.401 -126.88 Q 543.485 -124.837 551.135 -121.186 L 544.528 -106.32 Q 538.182 -109.189 530.923 -111.363 Q 523.664 -113.536 515.579 -113.536 Z" transform="matrix(1.166487, 0, 0, 1.166911, 910.763428, 691.249207)" style="fill: rgb(85, 85, 85); line-height: 341.839px; paint-order: stroke; stroke: rgb(197, 221, 172); stroke-linecap: round; stroke-linejoin: round; stroke-width: 107.687px; text-transform: uppercase; white-space: pre;"/>
        <path d="M 668.132 0 L 647.355 0 L 604.67 -59.724 L 591.63 -48.596 L 591.63 0 L 573.808 0 L 573.808 -127.098 L 591.63 -127.098 L 591.63 -65.027 Q 596.063 -70.243 600.627 -75.372 Q 605.192 -80.501 609.712 -85.717 L 646.137 -127.098 L 666.567 -127.098 L 617.536 -71.721 Z" transform="matrix(1.166487, 0, 0, 1.166911, 910.763428, 691.249207)" style="fill: rgb(85, 85, 85); line-height: 341.839px; paint-order: stroke; stroke: rgb(197, 221, 172); stroke-linecap: round; stroke-linejoin: round; stroke-width: 107.687px; text-transform: uppercase; white-space: pre;"/>
        <polygon style="fill-rule: nonzero; paint-order: stroke; fill: rgb(182, 213, 151); stroke-linejoin: round; stroke-linecap: round; stroke: rgb(197, 221, 172); stroke-width: 125.638px;" points="808.214 512.913 759.987 633.282 838.402 583.184 820.783 676.65 731.307 764.461 722.34 818.163 736.601 768.611 865.388 696.181 909.935 558.005 894.426 515.705 803.406 581.894 827.004 524.293 915.709 439.497">
          <title>logo s hintergrund und fuellung gruen</title>
        </polygon>
      </g>
      <g>
        <title>hintergrund1</title>
        <rect x="977.148" y="550.627" width="592.965" height="110.623" style="fill: rgb(255, 255, 255);">
          <title>buchstaben fuellung weiss</title>
        </rect>
        <polygon style="fill-rule: nonzero; paint-order: stroke; fill: rgb(182, 213, 151); stroke-linejoin: round; stroke-width: 62.8192px; stroke-linecap: round; stroke: rgb(255, 255, 255);" points="808.214 512.912 759.987 633.282 838.402 583.184 820.783 676.65 731.307 764.462 722.34 818.165 736.601 768.612 865.388 696.182 909.935 558.004 894.426 515.704 803.406 581.894 827.004 524.292 915.709 439.495">
          <title>logo s fuellung weiss</title>
        </polygon>
      </g>
      <path d="M 17.039 0 L 17.039 -127.098 L 34.861 -127.098 L 34.861 0 Z" transform="matrix(1.16649, 0, 0, 1.166913, 910.763245, 691.249207)" style="fill: rgb(171, 171, 171); line-height: 341.839px; paint-order: stroke; stroke: rgb(255, 255, 255); stroke-linecap: round; stroke-linejoin: round; stroke-width: 53.8434px; text-transform: uppercase; white-space: pre;"/>
      <path d="M 171.13 -64.766 Q 171.13 -43.293 163.219 -28.906 Q 155.308 -14.518 140.312 -7.259 Q 125.316 0 103.93 0 L 69.07 0 L 69.07 -127.098 L 107.842 -127.098 Q 127.315 -127.098 141.486 -120.013 Q 155.656 -112.927 163.393 -99.061 Q 171.13 -85.195 171.13 -64.766 Z M 152.439 -64.244 Q 152.439 -80.588 147.136 -91.194 Q 141.833 -101.8 131.575 -106.972 Q 121.317 -112.145 106.451 -112.145 L 86.891 -112.145 L 86.891 -15.127 L 103.322 -15.127 Q 127.924 -15.127 140.182 -27.471 Q 152.439 -39.816 152.439 -64.244 Z" transform="matrix(1.16649, 0, 0, 1.166913, 910.763245, 691.249207)" style="fill: rgb(171, 171, 171); line-height: 341.839px; paint-order: stroke; stroke: rgb(255, 255, 255); stroke-linecap: round; stroke-linejoin: round; stroke-width: 53.8434px; text-transform: uppercase; white-space: pre;"/>
      <path d="M 270.308 0 L 198.935 0 L 198.935 -127.098 L 270.308 -127.098 L 270.308 -111.797 L 216.757 -111.797 L 216.757 -73.981 L 267.092 -73.981 L 267.092 -58.854 L 216.757 -58.854 L 216.757 -15.387 L 270.308 -15.387 Z" transform="matrix(1.16649, 0, 0, 1.166913, 910.763245, 691.249207)" style="fill: rgb(171, 171, 171); line-height: 341.839px; paint-order: stroke; stroke: rgb(255, 255, 255); stroke-linecap: round; stroke-linejoin: round; stroke-width: 53.8434px; text-transform: uppercase; white-space: pre;"/>
      <path d="M 392.271 0 L 371.494 0 L 328.809 -59.724 L 315.769 -48.596 L 315.769 0 L 297.947 0 L 297.947 -127.098 L 315.769 -127.098 L 315.769 -65.027 Q 320.203 -70.243 324.767 -75.372 Q 329.331 -80.501 333.851 -85.717 L 370.277 -127.098 L 390.706 -127.098 L 341.675 -71.721 Z" transform="matrix(1.16649, 0, 0, 1.166913, 910.763245, 691.249207)" style="fill: rgb(171, 171, 171); line-height: 341.839px; paint-order: stroke; stroke: rgb(255, 255, 255); stroke-linecap: round; stroke-linejoin: round; stroke-width: 53.8434px; text-transform: uppercase; white-space: pre;"/>
      <path d="M 409.301 0 L 409.301 -127.098 L 427.123 -127.098 L 427.123 0 Z" transform="matrix(1.16649, 0, 0, 1.166913, 910.763245, 691.249207)" style="fill: rgb(171, 171, 171); line-height: 341.839px; paint-order: stroke; stroke: rgb(255, 255, 255); stroke-linecap: round; stroke-linejoin: round; stroke-width: 53.8434px; text-transform: uppercase; white-space: pre;"/>
      <path d="M 515.578 -113.536 Q 505.755 -113.536 497.974 -110.102 Q 490.194 -106.668 484.804 -100.105 Q 479.414 -93.541 476.545 -84.326 Q 473.676 -75.111 473.676 -63.549 Q 473.676 -48.161 478.24 -36.947 Q 482.804 -25.732 492.019 -19.647 Q 501.234 -13.562 515.231 -13.562 Q 523.576 -13.562 531.183 -15.083 Q 538.79 -16.604 546.353 -19.039 L 546.353 -3.738 Q 539.051 -0.956 531.27 0.391 Q 523.489 1.739 513.057 1.739 Q 493.584 1.739 480.674 -6.346 Q 467.765 -14.431 461.418 -29.079 Q 455.072 -43.728 455.072 -63.636 Q 455.072 -78.067 459.071 -90.02 Q 463.07 -101.974 470.807 -110.711 Q 478.545 -119.447 489.802 -124.185 Q 501.06 -128.923 515.752 -128.923 Q 525.315 -128.923 534.4 -126.88 Q 543.484 -124.837 551.134 -121.186 L 544.527 -106.32 Q 538.181 -109.189 530.922 -111.363 Q 523.663 -113.536 515.578 -113.536 Z" transform="matrix(1.16649, 0, 0, 1.166913, 910.763245, 691.249207)" style="fill: rgb(171, 171, 171); line-height: 341.839px; paint-order: stroke; stroke: rgb(255, 255, 255); stroke-linecap: round; stroke-linejoin: round; stroke-width: 53.8434px; text-transform: uppercase; white-space: pre;"/>
      <path d="M 668.131 0 L 647.353 0 L 604.669 -59.724 L 591.629 -48.596 L 591.629 0 L 573.807 0 L 573.807 -127.098 L 591.629 -127.098 L 591.629 -65.027 Q 596.062 -70.243 600.626 -75.372 Q 605.19 -80.501 609.711 -85.717 L 646.136 -127.098 L 666.566 -127.098 L 617.535 -71.721 Z" transform="matrix(1.16649, 0, 0, 1.166913, 910.763245, 691.249207)" style="fill: rgb(171, 171, 171); line-height: 341.839px; paint-order: stroke; stroke: rgb(255, 255, 255); stroke-linecap: round; stroke-linejoin: round; stroke-width: 53.8434px; text-transform: uppercase; white-space: pre;"/>
      <polygon style="fill-rule: nonzero; paint-order: stroke; fill: rgb(182, 213, 151); stroke-linejoin: round; stroke-width: 62.8192px; stroke-linecap: round; stroke: rgb(255, 255, 255);" points="808.214 512.911 759.987 633.282 838.402 583.184 820.783 676.65 731.307 764.463 722.34 818.167 736.601 768.613 836.242 696.183 894.426 515.703 803.406 581.894 827.004 524.291 915.709 439.493">
        <title>logo s</title>
      </polygon>
    </g>
  </g>
</svg>